<?xml version="1.0" encoding="UTF-8" standalone="no"?>
<svg width="87px" height="20px" viewBox="0 0 87 20" version="1.1" xmlns="http://www.w3.org/2000/svg" xmlns:xlink="http://www.w3.org/1999/xlink">
    <!-- Generator: sketchtool 42 (36781) - http://www.bohemiancoding.com/sketch -->
    <title>0A7A6D50-D5AA-484D-89A0-990B72CAEE94</title>
    <desc>Created with sketchtool.</desc>
    <defs>
        <polyline id="path-1" points="0 19.9051351 86.6932568 19.9051351 86.6932568 0 0 0"></polyline>
    </defs>
    <g id="Symbols" stroke="none" stroke-width="1" fill="none" fill-rule="evenodd">
        <g id="nav-bar-courses-after" transform="translate(-134.000000, -20.000000)">
            <g id="logo-copy" transform="translate(134.000000, 20.000000)">
                <mask id="mask-2" fill="white">
                    <use xlink:href="#path-1"></use>
                </mask>
                <g id="Clip-2"></g>
                <path d="M8.65066449,4.69243243 C8.67965275,4.33027027 8.61158211,4.01135135 8.44826436,3.73216216 C8.1920289,3.27351351 7.71501682,2.97297297 7.14586351,2.97297297 C6.46256894,2.97297297 5.8395803,3.40756757 5.53882716,4.02351351 C5.4365918,4.22945946 5.37395646,4.45216216 5.35195645,4.69243243 L5.17647398,6.8027027 C5.17647398,6.8027027 5.85562737,6.81783784 6.16000404,6.81783784 C8.64678214,6.81783784 8.65066449,4.69243243 8.65066449,4.69243243" id="Fill-1" fill="#FFFFFF" mask="url(#mask-2)"></path>
                <path d="M12.1551519,8.26594595 C11.9563753,8.16432432 11.7358575,8.10810811 11.4873867,8.10810811 L1.79832154,8.10810811 C1.45123896,8.10810811 1.1359917,8.2072973 0.854650336,8.40054054 C0.388250031,8.70945946 0.0566968722,9.23432432 0.00622625086,9.8272973 C-0.0525267288,10.5421622 0.309567626,11.1548649 0.879238588,11.4148649 C1.06843871,11.5005405 1.27963885,11.5516216 1.50947429,11.5516216 L4.70801757,11.5516216 L4.42848797,14.8862162 C4.40881737,15.1283784 4.4321115,15.3505405 4.50044096,15.5597297 C4.69973521,16.1767568 5.2489591,16.6108108 5.93095954,16.6108108 C6.59691292,16.6108108 7.20359567,16.1921622 7.51314882,15.5989189 C7.62780771,15.3818919 7.70286659,15.1464865 7.72331366,14.8862162 L8.0033609,11.5516216 L11.2003512,11.5516216 C11.4314808,11.5516216 11.6473398,11.5005405 11.8528458,11.4167568 C12.4654815,11.1548649 12.9323994,10.5421622 12.9934818,9.8272973 C13.0509407,9.13189189 12.702564,8.53540541 12.1551519,8.26594595" id="Fill-3" fill="#FFFFFF" mask="url(#mask-2)"></path>
                <path d="M25.7282329,9.34243243 C27.0759279,8.51081081 27.8373872,7.12108108 27.999152,5.20135135 C28.1381403,3.51972973 27.6582812,2.21297297 26.566304,1.31810811 C25.5015033,0.442702703 24.1758083,0 22.6280426,0 L17.5271452,0 C17.5152393,0 17.5041098,0.00243243243 17.4932393,0.0027027027 C17.1420155,0.00918918919 16.8166741,0.111621622 16.5213563,0.30972973 C16.3427679,0.425675676 16.188509,0.574594595 16.0518501,0.744324324 C15.7925087,1.05945946 15.637991,1.42027027 15.6033086,1.8272973 L14.2421548,18.0745946 C14.2054018,18.5156757 14.3172136,18.9018919 14.5607667,19.2327027 C14.6593786,19.3702703 14.7701551,19.4932432 14.9042258,19.5935135 C15.1664142,19.7905405 15.4754497,19.8918919 15.8251205,19.9 C15.8372852,19.9 15.8460852,19.9051351 15.8595441,19.9051351 L21.9232657,19.9051351 C23.646255,19.9051351 25.1797855,19.4437838 26.4821863,18.532973 C27.8177166,17.5991892 28.5706347,16.2143243 28.7210113,14.4194595 C28.8354114,13.0735135 28.5874583,11.9210811 27.9862108,11.0027027 C27.4861634,10.2372973 26.7280688,9.6772973 25.7282329,9.34243243 L25.7282329,9.34243243 Z M18.7876166,3.16945946 L21.8562303,3.16945946 C22.6606544,3.16945946 23.3136666,3.38837838 23.7919728,3.81810811 C24.2604437,4.23594595 24.4576673,4.81864865 24.3927026,5.59864865 C24.3132437,6.51945946 24.0155965,7.19027027 23.5036432,7.59189189 C22.9616664,8.01837838 22.3358307,8.22486486 21.5932655,8.22486486 L18.3636634,8.22486486 L18.7876166,3.16945946 L18.7876166,3.16945946 Z M24.0929848,16.0697297 C23.4301373,16.51 22.5830073,16.73 21.5746302,16.73 L17.6516394,16.73 L18.0753338,11.6578378 L22.1331717,11.6578378 C23.2155724,11.6578378 24.0391494,11.7313514 24.5203027,12.1818919 C25.0268207,12.6562162 25.220162,13.2324324 25.155456,14.0221622 C25.0739266,14.9835135 24.726844,15.6556757 24.0929848,16.0697297 L24.0929848,16.0697297 Z" id="Fill-5" fill="#FFFFFF" mask="url(#mask-2)"></path>
                <path d="M36.3457485,6.21621622 C35.1246183,6.21621622 33.9117704,6.45675676 32.7356755,6.93567568 C31.6431807,7.39189189 31.0618627,7.97027027 31.0044038,8.6527027 C30.9728273,9.03027027 31.0680745,9.34837838 31.2872981,9.59837838 C31.5054865,9.8472973 31.7997691,9.97567568 32.159534,9.97567568 C32.3228517,9.97567568 32.6515578,9.92810811 33.6190408,9.50540541 C34.3913708,9.17027027 35.1318654,8.99891892 35.8193011,8.99891892 C36.5409016,8.99891892 37.0388784,9.20324324 37.3411844,9.61810811 C37.6049258,9.99 37.705867,10.5667568 37.6419376,11.3294595 L37.6359846,11.3997297 C35.3332302,11.6086486 33.6845232,11.9272973 32.6010872,12.3740541 C30.8674861,13.0840541 29.9194149,14.2732432 29.7830148,15.9027027 C29.6758618,17.1789189 30.0400267,18.1983784 30.8628273,18.9305405 C31.6672513,19.6494595 32.6937461,20.0137838 33.9089234,20.0137838 C35.1699124,20.0137838 36.2903602,19.7827027 37.2469726,19.3251351 C37.5037257,19.7743243 37.9507143,20.0137838 38.5540323,20.0137838 C38.9994679,20.0137838 39.4016799,19.8478378 39.7503154,19.5254054 C40.098951,19.2027027 40.2948805,18.7975676 40.3357746,18.3283784 L40.9212339,11.3294595 C41.0503869,9.79675676 40.7866455,8.5872973 40.1375157,7.73432432 C39.3512093,6.72540541 38.0754673,6.21621622 36.3457485,6.21621622 M37.1889961,16.7381081 C36.4614427,17.1386486 35.7222422,17.3394595 34.9877006,17.3394595 C34.3657472,17.3394595 33.8465469,17.2010811 33.4474407,16.9245946 C33.0806875,16.6716216 32.9202168,16.3181081 32.961111,15.8445946 C33.0698169,14.5481081 35.3808538,14.0954054 37.421161,13.9513514 L37.1889961,16.7381081" id="Fill-6" fill="#FFFFFF" mask="url(#mask-2)"></path>
                <path d="M48.6222477,6.07756757 C47.6972118,6.07756757 46.78227,6.23972973 45.8950224,6.55810811 L46.3029285,1.71108108 C46.3246697,1.45378378 46.2897285,1.21756757 46.2079402,1 C45.9975165,0.41 45.4674456,0 44.8056334,0 C44.2393271,0 43.7152092,0.297567568 43.3821031,0.754324324 C43.17375,1.03351351 43.0521028,1.35162162 43.0236322,1.71108108 L41.6811137,17.7140541 C41.5941489,18.7618919 42.0486434,19.4318919 43.0013734,19.6478378 C43.7511857,19.7981081 44.7605981,19.8751351 45.9967401,19.8751351 C48.6683183,19.8751351 50.762202,19.0810811 52.2224853,17.5178378 C53.322486,16.352973 53.9599688,14.8245946 54.1147454,12.9740541 C54.2876396,10.9016216 53.873004,9.22432432 52.8858505,7.98324324 C51.8741086,6.7172973 50.43919,6.07756757 48.6222477,6.07756757 M49.7996367,15.5521622 C49.007895,16.4735135 47.9236825,16.9254054 46.4838463,16.9254054 C45.8919165,16.9254054 45.4050691,16.9032432 45.0310688,16.8675676 L45.6447398,9.56054054 C46.3332109,9.24567568 47.0617996,9.08324324 47.8092824,9.08324324 C48.7526948,9.08324324 49.4911188,9.40972973 50.0594957,10.0813514 C50.6387431,10.7981081 50.8828139,11.7745946 50.7834256,12.9740541 C50.6949078,14.0194595 50.36439,14.887027 49.7996367,15.5521622" id="Fill-7" fill="#FFFFFF" mask="url(#mask-2)"></path>
                <path d="M62.0790027,6.07756757 C61.1568139,6.07756757 60.2387662,6.23972973 59.3551421,6.55810811 L59.7602012,1.71108108 C59.7803895,1.45648649 59.7480365,1.22297297 59.6716835,1.00783784 C59.4633304,0.415405405 58.9306713,0 58.2626473,0 C57.6960822,0 57.1709289,0.299189189 56.8396346,0.757567568 C56.6315404,1.03432432 56.5096344,1.35162162 56.479352,1.71108108 L55.1407158,17.7140541 C55.0501276,18.7618919 55.5072102,19.4318919 56.4591638,19.6478378 C57.2087172,19.7981081 58.2163179,19.8751351 59.4568599,19.8751351 C62.1232616,19.8751351 64.2186983,19.0810811 65.6807933,17.5178378 C66.7826058,16.352973 67.418018,14.8245946 67.5738299,12.9740541 C67.7467241,10.9016216 67.3357121,9.22432432 66.3423467,7.98324324 C65.3313813,6.7172973 63.8941333,6.07756757 62.0790027,6.07756757 M63.2592388,15.5521622 C62.4656854,16.4735135 61.3812141,16.9254054 59.9421543,16.9254054 C59.3486715,16.9254054 58.8633771,16.9032432 58.4901533,16.8675676 L59.1030479,9.56054054 C59.789966,9.24567568 60.5177782,9.08324324 61.2675904,9.08324324 C62.2128146,9.08324324 62.9489092,9.40972973 63.5149566,10.0813514 C64.0978276,10.7981081 64.3406042,11.7745946 64.2409571,12.9740541 C64.152957,14.0194595 63.8219215,14.887027 63.2592388,15.5521622" id="Fill-8" fill="#FFFFFF" mask="url(#mask-2)"></path>
                <path d="M75.6063843,6.21621622 C73.6667595,6.21621622 72.0454879,6.85513514 70.7863106,8.11864865 C69.5123803,9.39405405 68.7840505,11.0216216 68.6238386,12.9475676 C68.4524973,15.0035135 68.9007799,16.6956757 69.9598865,17.97 C71.0497931,19.3251351 72.6790883,20.0137838 74.7960073,20.0137838 C76.1636318,20.0137838 77.4536091,19.7516216 78.634104,19.2337838 C79.6127164,18.792973 80.137352,18.2286486 80.1940344,17.5467568 C80.2274227,17.1572973 80.1334697,16.8191892 79.9160578,16.5318919 C79.6243634,16.1475676 79.2270691,15.9924324 78.6597275,16.1340541 C78.5233274,16.1697297 78.4014215,16.2224324 78.2999626,16.2818919 C78.2311155,16.3256757 78.1244801,16.3818919 77.9803153,16.4478378 C77.8226917,16.5232432 77.6875857,16.5924324 77.581468,16.6397297 C76.8086204,16.9943243 76.0148081,17.1743243 75.2228076,17.1743243 C74.0671598,17.1743243 73.2254651,16.792973 72.6441471,16.017027 C72.2706645,15.5205405 72.0537703,14.9086486 71.9981232,14.1859459 L79.3158456,14.1859459 C79.8249518,14.1859459 80.2530462,14.0035135 80.5858935,13.6408108 C80.9094231,13.2894595 81.0957762,12.8416216 81.1408115,12.3064865 C81.283941,10.6008108 80.8850937,9.16621622 79.9507401,8.03108108 C78.8957747,6.82756757 77.4354914,6.21621622 75.6063843,6.21621622 M72.2002645,11.6527027 C72.3444293,11.0002703 72.6249942,10.4432432 73.0388532,9.99108108 C73.626383,9.38108108 74.39716,9.08216216 75.392596,9.08216216 C76.2808789,9.08216216 76.9419146,9.36297297 77.4075385,9.93378378 C77.7685975,10.4116216 77.9474447,10.9743243 77.9531388,11.6527027 L72.2002645,11.6527027" id="Fill-9" fill="#FFFFFF" mask="url(#mask-2)"></path>
                <path d="M86.7141027,1.71108108 C86.7446439,1.35162162 86.6747615,1.03351351 86.5150672,0.754864865 C86.2588318,0.299189189 85.7846668,0 85.2173252,0 C84.5384307,0 83.9195832,0.432702703 83.6193477,1.04486486 C83.5168535,1.24945946 83.4547358,1.47297297 83.4337711,1.71108108 L82.0534643,18.1897297 C82.0340525,18.4294595 82.0594173,18.65 82.1256761,18.8559459 C82.3231586,19.4705405 82.8713472,19.9024324 83.5502418,19.9024324 C84.2133481,19.9024324 84.815372,19.4867568 85.1254428,18.8962162 C85.2390664,18.6802703 85.3123135,18.4483784 85.3335371,18.1897297 L86.7141027,1.71108108" id="Fill-11" fill="#FFFFFF" mask="url(#mask-2)"></path>
            </g>
        </g>
    </g>
</svg>